# xmcd
#
# Track frame offsets:
#	150
#	13367
#	28524
#	39471
#	57288
#
# Disc length: 939 seconds
#
# Revision: 0
# Processed by: cddbd v1.5.2PL0 Copyright (c) Steve Scherf et al.
# Submitted via: audiograbber 1.83.01
#
DISCID=3a03a905
DTITLE=Ronny Nash and His Whiteline Casanovas - Demo
DYEAR=2007
DGENRE=Country
TTITLE0=01 - Big River
TTITLE1=02 - Thank God For The Radio
TTITLE2=03 - Louisiana Saturday Night
TTITLE3=04 - Help Me Make It Through The Night
TTITLE4=05 - Bajou Betty
EXTD=
EXTT0=
EXTT1=
EXTT2=
EXTT3=
EXTT4=
PLAYORDER=
